<mxfile host="app.diagrams.net" agent="Mozilla/5.0 (Windows NT 10.0; Win64; x64) AppleWebKit/537.36 (KHTML, like Gecko) Chrome/134.0.0.0 Safari/537.36" version="26.2.14">
  <diagram name="Page-1" id="23UpCEcHk5T-VLEzfxEz">
    <mxGraphModel dx="2056" dy="1052" grid="1" gridSize="10" guides="1" tooltips="1" connect="1" arrows="1" fold="1" page="1" pageScale="1" pageWidth="1169" pageHeight="826" math="0" shadow="0">
      <root>
        <mxCell id="0" />
        <mxCell id="1" parent="0" />
        <mxCell id="fTGdVpEd8s1yHZfPlZ-Q-1" value="Unit&lt;span style=&quot;background-color: transparent; color: light-dark(rgb(0, 0, 0), rgb(255, 255, 255));&quot;&gt;Base&lt;/span&gt;" style="swimlane;fontStyle=1;align=center;verticalAlign=top;childLayout=stackLayout;horizontal=1;startSize=26;horizontalStack=0;resizeParent=1;resizeParentMax=0;resizeLast=0;collapsible=1;marginBottom=0;whiteSpace=wrap;html=1;" vertex="1" parent="1">
          <mxGeometry x="10" y="14" width="160" height="300" as="geometry" />
        </mxCell>
        <mxCell id="fTGdVpEd8s1yHZfPlZ-Q-2" value="+ maxHealth : int&lt;br&gt;+ currentHealth : int&lt;div&gt;+ damage : int&lt;/div&gt;&lt;div&gt;+ attackTimeInSeconds : float&lt;/div&gt;&lt;div&gt;+attackTimerSeconds : float&lt;/div&gt;&lt;div&gt;+distanceToFlag : float&lt;/div&gt;" style="text;strokeColor=none;fillColor=none;align=left;verticalAlign=top;spacingLeft=4;spacingRight=4;overflow=hidden;rotatable=0;points=[[0,0.5],[1,0.5]];portConstraint=eastwest;whiteSpace=wrap;html=1;" vertex="1" parent="fTGdVpEd8s1yHZfPlZ-Q-1">
          <mxGeometry y="26" width="160" height="114" as="geometry" />
        </mxCell>
        <mxCell id="fTGdVpEd8s1yHZfPlZ-Q-3" value="" style="line;strokeWidth=1;fillColor=none;align=left;verticalAlign=middle;spacingTop=-1;spacingLeft=3;spacingRight=3;rotatable=0;labelPosition=right;points=[];portConstraint=eastwest;strokeColor=inherit;" vertex="1" parent="fTGdVpEd8s1yHZfPlZ-Q-1">
          <mxGeometry y="140" width="160" height="8" as="geometry" />
        </mxCell>
        <mxCell id="fTGdVpEd8s1yHZfPlZ-Q-4" value="+ Initialize : virtual void&lt;div&gt;+GetPosition() : Vector2&lt;/div&gt;&lt;div&gt;+ OnReachedTarget : virtual void&lt;/div&gt;&lt;div&gt;+OnLeftTarget() : virtual void&lt;/div&gt;&lt;div&gt;+DealDamage() : void&lt;/div&gt;&lt;div&gt;+Update() : virtual void&lt;/div&gt;&lt;div&gt;+TryDealDamage() : virtual void&lt;/div&gt;" style="text;strokeColor=none;fillColor=none;align=left;verticalAlign=top;spacingLeft=4;spacingRight=4;overflow=hidden;rotatable=0;points=[[0,0.5],[1,0.5]];portConstraint=eastwest;whiteSpace=wrap;html=1;" vertex="1" parent="fTGdVpEd8s1yHZfPlZ-Q-1">
          <mxGeometry y="148" width="160" height="152" as="geometry" />
        </mxCell>
        <mxCell id="fTGdVpEd8s1yHZfPlZ-Q-5" value="IUnit&lt;div&gt;&lt;div&gt;&amp;nbsp; &amp;nbsp; void Initialize(UnitSettings settings);&lt;/div&gt;&lt;div&gt;&amp;nbsp; &amp;nbsp; public Vector2 GetPosition();&lt;/div&gt;&lt;div&gt;&amp;nbsp; &amp;nbsp; public Transform GetTransform();&lt;/div&gt;&lt;/div&gt;" style="html=1;whiteSpace=wrap;" vertex="1" parent="1">
          <mxGeometry x="240" y="14" width="210" height="70" as="geometry" />
        </mxCell>
        <mxCell id="fTGdVpEd8s1yHZfPlZ-Q-7" value="" style="endArrow=classic;html=1;rounded=0;entryX=0;entryY=0.5;entryDx=0;entryDy=0;exitX=0.997;exitY=0.346;exitDx=0;exitDy=0;exitPerimeter=0;" edge="1" parent="1" source="fTGdVpEd8s1yHZfPlZ-Q-2" target="fTGdVpEd8s1yHZfPlZ-Q-5">
          <mxGeometry width="50" height="50" relative="1" as="geometry">
            <mxPoint x="160" y="110" as="sourcePoint" />
            <mxPoint x="210" y="60" as="targetPoint" />
          </mxGeometry>
        </mxCell>
        <mxCell id="fTGdVpEd8s1yHZfPlZ-Q-8" value="Implements" style="text;strokeColor=none;fillColor=none;align=left;verticalAlign=middle;spacingLeft=4;spacingRight=4;overflow=hidden;points=[[0,0.5],[1,0.5]];portConstraint=eastwest;rotatable=0;whiteSpace=wrap;html=1;" vertex="1" parent="1">
          <mxGeometry x="170" y="20" width="80" height="30" as="geometry" />
        </mxCell>
        <mxCell id="fTGdVpEd8s1yHZfPlZ-Q-9" value="UnitFactory" style="swimlane;fontStyle=1;align=center;verticalAlign=top;childLayout=stackLayout;horizontal=1;startSize=26;horizontalStack=0;resizeParent=1;resizeParentMax=0;resizeLast=0;collapsible=1;marginBottom=0;whiteSpace=wrap;html=1;" vertex="1" parent="1">
          <mxGeometry x="250" y="100" width="180" height="94" as="geometry" />
        </mxCell>
        <mxCell id="fTGdVpEd8s1yHZfPlZ-Q-10" value="+unitProperties : UnitProperties" style="text;strokeColor=none;fillColor=none;align=left;verticalAlign=top;spacingLeft=4;spacingRight=4;overflow=hidden;rotatable=0;points=[[0,0.5],[1,0.5]];portConstraint=eastwest;whiteSpace=wrap;html=1;" vertex="1" parent="fTGdVpEd8s1yHZfPlZ-Q-9">
          <mxGeometry y="26" width="180" height="34" as="geometry" />
        </mxCell>
        <mxCell id="fTGdVpEd8s1yHZfPlZ-Q-11" value="" style="line;strokeWidth=1;fillColor=none;align=left;verticalAlign=middle;spacingTop=-1;spacingLeft=3;spacingRight=3;rotatable=0;labelPosition=right;points=[];portConstraint=eastwest;strokeColor=inherit;" vertex="1" parent="fTGdVpEd8s1yHZfPlZ-Q-9">
          <mxGeometry y="60" width="180" height="8" as="geometry" />
        </mxCell>
        <mxCell id="fTGdVpEd8s1yHZfPlZ-Q-12" value="+CreateUnit() : IUnit" style="text;strokeColor=none;fillColor=none;align=left;verticalAlign=top;spacingLeft=4;spacingRight=4;overflow=hidden;rotatable=0;points=[[0,0.5],[1,0.5]];portConstraint=eastwest;whiteSpace=wrap;html=1;" vertex="1" parent="fTGdVpEd8s1yHZfPlZ-Q-9">
          <mxGeometry y="68" width="180" height="26" as="geometry" />
        </mxCell>
        <mxCell id="fTGdVpEd8s1yHZfPlZ-Q-13" value="AntUnit" style="swimlane;fontStyle=1;align=center;verticalAlign=top;childLayout=stackLayout;horizontal=1;startSize=26;horizontalStack=0;resizeParent=1;resizeParentMax=0;resizeLast=0;collapsible=1;marginBottom=0;whiteSpace=wrap;html=1;" vertex="1" parent="1">
          <mxGeometry x="10" y="360" width="160" height="150" as="geometry" />
        </mxCell>
        <mxCell id="fTGdVpEd8s1yHZfPlZ-Q-14" value="+ isAIMode : bool&lt;div&gt;+debug : string&lt;/div&gt;" style="text;strokeColor=none;fillColor=none;align=left;verticalAlign=top;spacingLeft=4;spacingRight=4;overflow=hidden;rotatable=0;points=[[0,0.5],[1,0.5]];portConstraint=eastwest;whiteSpace=wrap;html=1;" vertex="1" parent="fTGdVpEd8s1yHZfPlZ-Q-13">
          <mxGeometry y="26" width="160" height="34" as="geometry" />
        </mxCell>
        <mxCell id="fTGdVpEd8s1yHZfPlZ-Q-15" value="" style="line;strokeWidth=1;fillColor=none;align=left;verticalAlign=middle;spacingTop=-1;spacingLeft=3;spacingRight=3;rotatable=0;labelPosition=right;points=[];portConstraint=eastwest;strokeColor=inherit;" vertex="1" parent="fTGdVpEd8s1yHZfPlZ-Q-13">
          <mxGeometry y="60" width="160" height="8" as="geometry" />
        </mxCell>
        <mxCell id="fTGdVpEd8s1yHZfPlZ-Q-16" value="+Initialize() : void&lt;div&gt;+OnAIModeToggled() : void&lt;/div&gt;&lt;div&gt;+OnDamageDealt() : void&lt;/div&gt;&lt;div&gt;+SetMoveTarget() : void&lt;/div&gt;&lt;div&gt;+Update() : void&lt;/div&gt;" style="text;strokeColor=none;fillColor=none;align=left;verticalAlign=top;spacingLeft=4;spacingRight=4;overflow=hidden;rotatable=0;points=[[0,0.5],[1,0.5]];portConstraint=eastwest;whiteSpace=wrap;html=1;" vertex="1" parent="fTGdVpEd8s1yHZfPlZ-Q-13">
          <mxGeometry y="68" width="160" height="82" as="geometry" />
        </mxCell>
        <mxCell id="fTGdVpEd8s1yHZfPlZ-Q-18" value="Inherits" style="text;strokeColor=none;fillColor=none;align=left;verticalAlign=top;spacingLeft=4;spacingRight=4;overflow=hidden;rotatable=0;points=[[0,0.5],[1,0.5]];portConstraint=eastwest;whiteSpace=wrap;html=1;" vertex="1" parent="1">
          <mxGeometry x="140" y="330" width="100" height="26" as="geometry" />
        </mxCell>
        <mxCell id="fTGdVpEd8s1yHZfPlZ-Q-17" value="" style="endArrow=classic;html=1;rounded=0;exitX=0.75;exitY=0;exitDx=0;exitDy=0;entryX=0.536;entryY=1.011;entryDx=0;entryDy=0;entryPerimeter=0;" edge="1" parent="1" source="fTGdVpEd8s1yHZfPlZ-Q-13" target="fTGdVpEd8s1yHZfPlZ-Q-4">
          <mxGeometry width="50" height="50" relative="1" as="geometry">
            <mxPoint x="420" y="340" as="sourcePoint" />
            <mxPoint x="470" y="290" as="targetPoint" />
          </mxGeometry>
        </mxCell>
        <mxCell id="fTGdVpEd8s1yHZfPlZ-Q-19" value="BeetleUnit" style="swimlane;fontStyle=1;align=center;verticalAlign=top;childLayout=stackLayout;horizontal=1;startSize=26;horizontalStack=0;resizeParent=1;resizeParentMax=0;resizeLast=0;collapsible=1;marginBottom=0;whiteSpace=wrap;html=1;" vertex="1" parent="1">
          <mxGeometry x="190" y="360" width="160" height="70" as="geometry" />
        </mxCell>
        <mxCell id="fTGdVpEd8s1yHZfPlZ-Q-21" value="" style="line;strokeWidth=1;fillColor=none;align=left;verticalAlign=middle;spacingTop=-1;spacingLeft=3;spacingRight=3;rotatable=0;labelPosition=right;points=[];portConstraint=eastwest;strokeColor=inherit;" vertex="1" parent="fTGdVpEd8s1yHZfPlZ-Q-19">
          <mxGeometry y="26" width="160" height="8" as="geometry" />
        </mxCell>
        <mxCell id="fTGdVpEd8s1yHZfPlZ-Q-22" value="+ Initialize() : void&lt;div&gt;+OnReachedTarget() : void&lt;/div&gt;" style="text;strokeColor=none;fillColor=none;align=left;verticalAlign=top;spacingLeft=4;spacingRight=4;overflow=hidden;rotatable=0;points=[[0,0.5],[1,0.5]];portConstraint=eastwest;whiteSpace=wrap;html=1;" vertex="1" parent="fTGdVpEd8s1yHZfPlZ-Q-19">
          <mxGeometry y="34" width="160" height="36" as="geometry" />
        </mxCell>
        <mxCell id="fTGdVpEd8s1yHZfPlZ-Q-24" value="" style="endArrow=classic;html=1;rounded=0;exitX=0.25;exitY=0;exitDx=0;exitDy=0;entryX=1.012;entryY=1.005;entryDx=0;entryDy=0;entryPerimeter=0;" edge="1" parent="1" source="fTGdVpEd8s1yHZfPlZ-Q-19" target="fTGdVpEd8s1yHZfPlZ-Q-4">
          <mxGeometry width="50" height="50" relative="1" as="geometry">
            <mxPoint x="420" y="340" as="sourcePoint" />
            <mxPoint x="470" y="290" as="targetPoint" />
          </mxGeometry>
        </mxCell>
        <mxCell id="fTGdVpEd8s1yHZfPlZ-Q-25" value="UnitProperties : ScriptableObject" style="swimlane;fontStyle=1;align=center;verticalAlign=top;childLayout=stackLayout;horizontal=1;startSize=36;horizontalStack=0;resizeParent=1;resizeParentMax=0;resizeLast=0;collapsible=1;marginBottom=0;whiteSpace=wrap;html=1;" vertex="1" parent="1">
          <mxGeometry x="470" y="14" width="160" height="168" as="geometry" />
        </mxCell>
        <mxCell id="fTGdVpEd8s1yHZfPlZ-Q-26" value="+antProperties : UnitSettings&lt;div&gt;+aphidProperties : UnitSettings&lt;/div&gt;&lt;div&gt;+beetleProperties : UnitSettings&lt;/div&gt;&lt;div&gt;+ladybugProperties : UnitSettings&lt;/div&gt;" style="text;strokeColor=none;fillColor=none;align=left;verticalAlign=top;spacingLeft=4;spacingRight=4;overflow=hidden;rotatable=0;points=[[0,0.5],[1,0.5]];portConstraint=eastwest;whiteSpace=wrap;html=1;" vertex="1" parent="fTGdVpEd8s1yHZfPlZ-Q-25">
          <mxGeometry y="36" width="160" height="124" as="geometry" />
        </mxCell>
        <mxCell id="fTGdVpEd8s1yHZfPlZ-Q-27" value="" style="line;strokeWidth=1;fillColor=none;align=left;verticalAlign=middle;spacingTop=-1;spacingLeft=3;spacingRight=3;rotatable=0;labelPosition=right;points=[];portConstraint=eastwest;strokeColor=inherit;" vertex="1" parent="fTGdVpEd8s1yHZfPlZ-Q-25">
          <mxGeometry y="160" width="160" height="8" as="geometry" />
        </mxCell>
        <mxCell id="fTGdVpEd8s1yHZfPlZ-Q-29" value="UnitSettings" style="swimlane;fontStyle=1;align=center;verticalAlign=top;childLayout=stackLayout;horizontal=1;startSize=26;horizontalStack=0;resizeParent=1;resizeParentMax=0;resizeLast=0;collapsible=1;marginBottom=0;whiteSpace=wrap;html=1;" vertex="1" parent="1">
          <mxGeometry x="650" y="14" width="160" height="158" as="geometry" />
        </mxCell>
        <mxCell id="fTGdVpEd8s1yHZfPlZ-Q-30" value="+health : int&lt;div&gt;+moveSpeed : float&lt;/div&gt;&lt;div&gt;+damage : int&lt;/div&gt;&lt;div&gt;+attackTimeInSeconds : float&lt;/div&gt;&lt;div&gt;+isAIMode : bool&lt;/div&gt;&lt;div&gt;+distanceToFlagThreshold : float&lt;/div&gt;" style="text;strokeColor=none;fillColor=none;align=left;verticalAlign=top;spacingLeft=4;spacingRight=4;overflow=hidden;rotatable=0;points=[[0,0.5],[1,0.5]];portConstraint=eastwest;whiteSpace=wrap;html=1;" vertex="1" parent="fTGdVpEd8s1yHZfPlZ-Q-29">
          <mxGeometry y="26" width="160" height="124" as="geometry" />
        </mxCell>
        <mxCell id="fTGdVpEd8s1yHZfPlZ-Q-31" value="" style="line;strokeWidth=1;fillColor=none;align=left;verticalAlign=middle;spacingTop=-1;spacingLeft=3;spacingRight=3;rotatable=0;labelPosition=right;points=[];portConstraint=eastwest;strokeColor=inherit;" vertex="1" parent="fTGdVpEd8s1yHZfPlZ-Q-29">
          <mxGeometry y="150" width="160" height="8" as="geometry" />
        </mxCell>
        <mxCell id="fTGdVpEd8s1yHZfPlZ-Q-33" value="" style="endArrow=classic;html=1;rounded=0;exitX=0;exitY=0.645;exitDx=0;exitDy=0;exitPerimeter=0;entryX=1;entryY=0.5;entryDx=0;entryDy=0;" edge="1" parent="1" source="fTGdVpEd8s1yHZfPlZ-Q-26" target="fTGdVpEd8s1yHZfPlZ-Q-10">
          <mxGeometry width="50" height="50" relative="1" as="geometry">
            <mxPoint x="430" y="240" as="sourcePoint" />
            <mxPoint x="480" y="190" as="targetPoint" />
          </mxGeometry>
        </mxCell>
        <mxCell id="fTGdVpEd8s1yHZfPlZ-Q-34" value="" style="endArrow=classic;html=1;rounded=0;exitX=-0.006;exitY=0.449;exitDx=0;exitDy=0;exitPerimeter=0;entryX=1.015;entryY=0.472;entryDx=0;entryDy=0;entryPerimeter=0;" edge="1" parent="1" source="fTGdVpEd8s1yHZfPlZ-Q-30" target="fTGdVpEd8s1yHZfPlZ-Q-26">
          <mxGeometry width="50" height="50" relative="1" as="geometry">
            <mxPoint x="430" y="240" as="sourcePoint" />
            <mxPoint x="480" y="190" as="targetPoint" />
          </mxGeometry>
        </mxCell>
        <mxCell id="fTGdVpEd8s1yHZfPlZ-Q-35" value="AntFactory" style="swimlane;fontStyle=1;align=center;verticalAlign=top;childLayout=stackLayout;horizontal=1;startSize=26;horizontalStack=0;resizeParent=1;resizeParentMax=0;resizeLast=0;collapsible=1;marginBottom=0;whiteSpace=wrap;html=1;" vertex="1" parent="1">
          <mxGeometry x="430" y="230" width="160" height="94" as="geometry" />
        </mxCell>
        <mxCell id="fTGdVpEd8s1yHZfPlZ-Q-36" value="+antPrefab : AntUnit&lt;div&gt;+flag : Transform&lt;/div&gt;" style="text;strokeColor=none;fillColor=none;align=left;verticalAlign=top;spacingLeft=4;spacingRight=4;overflow=hidden;rotatable=0;points=[[0,0.5],[1,0.5]];portConstraint=eastwest;whiteSpace=wrap;html=1;" vertex="1" parent="fTGdVpEd8s1yHZfPlZ-Q-35">
          <mxGeometry y="26" width="160" height="34" as="geometry" />
        </mxCell>
        <mxCell id="fTGdVpEd8s1yHZfPlZ-Q-37" value="" style="line;strokeWidth=1;fillColor=none;align=left;verticalAlign=middle;spacingTop=-1;spacingLeft=3;spacingRight=3;rotatable=0;labelPosition=right;points=[];portConstraint=eastwest;strokeColor=inherit;" vertex="1" parent="fTGdVpEd8s1yHZfPlZ-Q-35">
          <mxGeometry y="60" width="160" height="8" as="geometry" />
        </mxCell>
        <mxCell id="fTGdVpEd8s1yHZfPlZ-Q-38" value="+CreateUnit() : IUnit" style="text;strokeColor=none;fillColor=none;align=left;verticalAlign=top;spacingLeft=4;spacingRight=4;overflow=hidden;rotatable=0;points=[[0,0.5],[1,0.5]];portConstraint=eastwest;whiteSpace=wrap;html=1;" vertex="1" parent="fTGdVpEd8s1yHZfPlZ-Q-35">
          <mxGeometry y="68" width="160" height="26" as="geometry" />
        </mxCell>
        <mxCell id="fTGdVpEd8s1yHZfPlZ-Q-39" value="BeetleFactory" style="swimlane;fontStyle=1;align=center;verticalAlign=top;childLayout=stackLayout;horizontal=1;startSize=26;horizontalStack=0;resizeParent=1;resizeParentMax=0;resizeLast=0;collapsible=1;marginBottom=0;whiteSpace=wrap;html=1;" vertex="1" parent="1">
          <mxGeometry x="250" y="230" width="160" height="94" as="geometry" />
        </mxCell>
        <mxCell id="fTGdVpEd8s1yHZfPlZ-Q-40" value="+beetlePrefab : BeetleUnit&lt;div&gt;+flag : Transform&lt;/div&gt;" style="text;strokeColor=none;fillColor=none;align=left;verticalAlign=top;spacingLeft=4;spacingRight=4;overflow=hidden;rotatable=0;points=[[0,0.5],[1,0.5]];portConstraint=eastwest;whiteSpace=wrap;html=1;" vertex="1" parent="fTGdVpEd8s1yHZfPlZ-Q-39">
          <mxGeometry y="26" width="160" height="34" as="geometry" />
        </mxCell>
        <mxCell id="fTGdVpEd8s1yHZfPlZ-Q-41" value="" style="line;strokeWidth=1;fillColor=none;align=left;verticalAlign=middle;spacingTop=-1;spacingLeft=3;spacingRight=3;rotatable=0;labelPosition=right;points=[];portConstraint=eastwest;strokeColor=inherit;" vertex="1" parent="fTGdVpEd8s1yHZfPlZ-Q-39">
          <mxGeometry y="60" width="160" height="8" as="geometry" />
        </mxCell>
        <mxCell id="fTGdVpEd8s1yHZfPlZ-Q-42" value="+CreateUnit() : IUnit" style="text;strokeColor=none;fillColor=none;align=left;verticalAlign=top;spacingLeft=4;spacingRight=4;overflow=hidden;rotatable=0;points=[[0,0.5],[1,0.5]];portConstraint=eastwest;whiteSpace=wrap;html=1;" vertex="1" parent="fTGdVpEd8s1yHZfPlZ-Q-39">
          <mxGeometry y="68" width="160" height="26" as="geometry" />
        </mxCell>
        <mxCell id="fTGdVpEd8s1yHZfPlZ-Q-43" value="" style="endArrow=classic;html=1;rounded=0;exitX=0.563;exitY=0;exitDx=0;exitDy=0;exitPerimeter=0;entryX=0.495;entryY=1.009;entryDx=0;entryDy=0;entryPerimeter=0;" edge="1" parent="1" source="fTGdVpEd8s1yHZfPlZ-Q-39" target="fTGdVpEd8s1yHZfPlZ-Q-12">
          <mxGeometry width="50" height="50" relative="1" as="geometry">
            <mxPoint x="430" y="240" as="sourcePoint" />
            <mxPoint x="480" y="190" as="targetPoint" />
          </mxGeometry>
        </mxCell>
        <mxCell id="fTGdVpEd8s1yHZfPlZ-Q-44" value="" style="endArrow=classic;html=1;rounded=0;exitX=0.417;exitY=-0.006;exitDx=0;exitDy=0;exitPerimeter=0;entryX=0.847;entryY=1.046;entryDx=0;entryDy=0;entryPerimeter=0;" edge="1" parent="1" source="fTGdVpEd8s1yHZfPlZ-Q-35" target="fTGdVpEd8s1yHZfPlZ-Q-12">
          <mxGeometry width="50" height="50" relative="1" as="geometry">
            <mxPoint x="430" y="240" as="sourcePoint" />
            <mxPoint x="480" y="190" as="targetPoint" />
          </mxGeometry>
        </mxCell>
        <mxCell id="fTGdVpEd8s1yHZfPlZ-Q-45" value="Inherits" style="text;strokeColor=none;fillColor=none;align=left;verticalAlign=top;spacingLeft=4;spacingRight=4;overflow=hidden;rotatable=0;points=[[0,0.5],[1,0.5]];portConstraint=eastwest;whiteSpace=wrap;html=1;" vertex="1" parent="1">
          <mxGeometry x="340" y="204" width="100" height="26" as="geometry" />
        </mxCell>
        <mxCell id="fTGdVpEd8s1yHZfPlZ-Q-46" value="GameController" style="swimlane;fontStyle=1;align=center;verticalAlign=top;childLayout=stackLayout;horizontal=1;startSize=26;horizontalStack=0;resizeParent=1;resizeParentMax=0;resizeLast=0;collapsible=1;marginBottom=0;whiteSpace=wrap;html=1;" vertex="1" parent="1">
          <mxGeometry x="510" y="356" width="200" height="250" as="geometry" />
        </mxCell>
        <mxCell id="fTGdVpEd8s1yHZfPlZ-Q-47" value="+resultsPanel : ResultsPanel&lt;div&gt;+gameSettings : GameSettings&lt;/div&gt;&lt;div&gt;+antFactory : AntFactory&lt;/div&gt;&lt;div&gt;+beetleFactory : BeetleFactory&lt;/div&gt;&lt;div&gt;+aphidFactory : AphidFactory&lt;/div&gt;&lt;div&gt;+ladybugFactory : LadybugFactory&lt;br&gt;&lt;div&gt;&lt;br&gt;&lt;/div&gt;&lt;/div&gt;" style="text;strokeColor=none;fillColor=none;align=left;verticalAlign=top;spacingLeft=4;spacingRight=4;overflow=hidden;rotatable=0;points=[[0,0.5],[1,0.5]];portConstraint=eastwest;whiteSpace=wrap;html=1;" vertex="1" parent="fTGdVpEd8s1yHZfPlZ-Q-46">
          <mxGeometry y="26" width="200" height="104" as="geometry" />
        </mxCell>
        <mxCell id="fTGdVpEd8s1yHZfPlZ-Q-48" value="" style="line;strokeWidth=1;fillColor=none;align=left;verticalAlign=middle;spacingTop=-1;spacingLeft=3;spacingRight=3;rotatable=0;labelPosition=right;points=[];portConstraint=eastwest;strokeColor=inherit;" vertex="1" parent="fTGdVpEd8s1yHZfPlZ-Q-46">
          <mxGeometry y="130" width="200" height="8" as="geometry" />
        </mxCell>
        <mxCell id="fTGdVpEd8s1yHZfPlZ-Q-49" value="+Awake() : void&lt;div&gt;+OnGameStarted() : void&lt;/div&gt;&lt;div&gt;+InitializeGrid() : void&lt;/div&gt;&lt;div&gt;+SpawnRandomUnits() : void&lt;/div&gt;&lt;div&gt;+OnEnemyReachedFlag() : void&lt;/div&gt;&lt;div&gt;+OnUnitDied() : void&lt;/div&gt;&lt;div&gt;+Update() : void&lt;/div&gt;&lt;div&gt;&lt;br&gt;&lt;/div&gt;" style="text;strokeColor=none;fillColor=none;align=left;verticalAlign=top;spacingLeft=4;spacingRight=4;overflow=hidden;rotatable=0;points=[[0,0.5],[1,0.5]];portConstraint=eastwest;whiteSpace=wrap;html=1;" vertex="1" parent="fTGdVpEd8s1yHZfPlZ-Q-46">
          <mxGeometry y="138" width="200" height="112" as="geometry" />
        </mxCell>
        <mxCell id="fTGdVpEd8s1yHZfPlZ-Q-50" value="Grid&amp;lt;TCell&amp;gt;" style="swimlane;fontStyle=1;align=center;verticalAlign=top;childLayout=stackLayout;horizontal=1;startSize=26;horizontalStack=0;resizeParent=1;resizeParentMax=0;resizeLast=0;collapsible=1;marginBottom=0;whiteSpace=wrap;html=1;" vertex="1" parent="1">
          <mxGeometry x="740" y="356" width="170" height="260" as="geometry" />
        </mxCell>
        <mxCell id="fTGdVpEd8s1yHZfPlZ-Q-51" value="+settings : GridSettings&lt;div&gt;+cellArray : TCell[,]&lt;/div&gt;&lt;div&gt;+registeredUnits : HashSet&lt;/div&gt;" style="text;strokeColor=none;fillColor=none;align=left;verticalAlign=top;spacingLeft=4;spacingRight=4;overflow=hidden;rotatable=0;points=[[0,0.5],[1,0.5]];portConstraint=eastwest;whiteSpace=wrap;html=1;" vertex="1" parent="fTGdVpEd8s1yHZfPlZ-Q-50">
          <mxGeometry y="26" width="170" height="54" as="geometry" />
        </mxCell>
        <mxCell id="fTGdVpEd8s1yHZfPlZ-Q-52" value="" style="line;strokeWidth=1;fillColor=none;align=left;verticalAlign=middle;spacingTop=-1;spacingLeft=3;spacingRight=3;rotatable=0;labelPosition=right;points=[];portConstraint=eastwest;strokeColor=inherit;" vertex="1" parent="fTGdVpEd8s1yHZfPlZ-Q-50">
          <mxGeometry y="80" width="170" height="8" as="geometry" />
        </mxCell>
        <mxCell id="fTGdVpEd8s1yHZfPlZ-Q-53" value="+Grid() : Grid&lt;div&gt;+AddCell() : void&lt;/div&gt;&lt;div&gt;+GetCell() : TCell&lt;/div&gt;&lt;div&gt;+DeleteCell() : void&lt;/div&gt;&lt;div&gt;+RegisterUnit() : void&lt;/div&gt;&lt;div&gt;+UnregisterUnit() : void&lt;/div&gt;&lt;div&gt;+Move() : void&lt;/div&gt;&lt;div&gt;+FindClosestUnit() : IUnit&lt;/div&gt;&lt;div&gt;+ConvertFromWorldToCell : Vector2Int&lt;/div&gt;&lt;div&gt;+IsValidCellPosition : bool&lt;/div&gt;" style="text;strokeColor=none;fillColor=none;align=left;verticalAlign=top;spacingLeft=4;spacingRight=4;overflow=hidden;rotatable=0;points=[[0,0.5],[1,0.5]];portConstraint=eastwest;whiteSpace=wrap;html=1;" vertex="1" parent="fTGdVpEd8s1yHZfPlZ-Q-50">
          <mxGeometry y="88" width="170" height="172" as="geometry" />
        </mxCell>
        <mxCell id="fTGdVpEd8s1yHZfPlZ-Q-54" value="MovementBase" style="swimlane;fontStyle=1;align=center;verticalAlign=top;childLayout=stackLayout;horizontal=1;startSize=26;horizontalStack=0;resizeParent=1;resizeParentMax=0;resizeLast=0;collapsible=1;marginBottom=0;whiteSpace=wrap;html=1;" vertex="1" parent="1">
          <mxGeometry x="10" y="540" width="160" height="230" as="geometry" />
        </mxCell>
        <mxCell id="fTGdVpEd8s1yHZfPlZ-Q-55" value="+target : Transform&lt;div&gt;+reachedTarget : bool&lt;/div&gt;&lt;div&gt;+OnReachedTarget : Action&lt;/div&gt;&lt;div&gt;+grid : Grid&amp;lt;TCell&amp;gt;&lt;/div&gt;&lt;div&gt;+speed : float&lt;/div&gt;&lt;div&gt;+distanceToTarget : float&lt;/div&gt;" style="text;strokeColor=none;fillColor=none;align=left;verticalAlign=top;spacingLeft=4;spacingRight=4;overflow=hidden;rotatable=0;points=[[0,0.5],[1,0.5]];portConstraint=eastwest;whiteSpace=wrap;html=1;" vertex="1" parent="fTGdVpEd8s1yHZfPlZ-Q-54">
          <mxGeometry y="26" width="160" height="94" as="geometry" />
        </mxCell>
        <mxCell id="fTGdVpEd8s1yHZfPlZ-Q-56" value="" style="line;strokeWidth=1;fillColor=none;align=left;verticalAlign=middle;spacingTop=-1;spacingLeft=3;spacingRight=3;rotatable=0;labelPosition=right;points=[];portConstraint=eastwest;strokeColor=inherit;" vertex="1" parent="fTGdVpEd8s1yHZfPlZ-Q-54">
          <mxGeometry y="120" width="160" height="8" as="geometry" />
        </mxCell>
        <mxCell id="fTGdVpEd8s1yHZfPlZ-Q-57" value="+Awake() : void&lt;div&gt;+SetTarget() : void&lt;/div&gt;&lt;div&gt;+FindClosestEnemy() : IUnit&lt;/div&gt;&lt;div&gt;+Move() : void&lt;/div&gt;&lt;div&gt;+Update() : void&lt;/div&gt;" style="text;strokeColor=none;fillColor=none;align=left;verticalAlign=top;spacingLeft=4;spacingRight=4;overflow=hidden;rotatable=0;points=[[0,0.5],[1,0.5]];portConstraint=eastwest;whiteSpace=wrap;html=1;" vertex="1" parent="fTGdVpEd8s1yHZfPlZ-Q-54">
          <mxGeometry y="128" width="160" height="102" as="geometry" />
        </mxCell>
        <mxCell id="fTGdVpEd8s1yHZfPlZ-Q-58" value="LinearMovement" style="swimlane;fontStyle=1;align=center;verticalAlign=top;childLayout=stackLayout;horizontal=1;startSize=26;horizontalStack=0;resizeParent=1;resizeParentMax=0;resizeLast=0;collapsible=1;marginBottom=0;whiteSpace=wrap;html=1;" vertex="1" parent="1">
          <mxGeometry x="220" y="540" width="160" height="60" as="geometry" />
        </mxCell>
        <mxCell id="fTGdVpEd8s1yHZfPlZ-Q-60" value="" style="line;strokeWidth=1;fillColor=none;align=left;verticalAlign=middle;spacingTop=-1;spacingLeft=3;spacingRight=3;rotatable=0;labelPosition=right;points=[];portConstraint=eastwest;strokeColor=inherit;" vertex="1" parent="fTGdVpEd8s1yHZfPlZ-Q-58">
          <mxGeometry y="26" width="160" height="8" as="geometry" />
        </mxCell>
        <mxCell id="fTGdVpEd8s1yHZfPlZ-Q-61" value="+Update : override void" style="text;strokeColor=none;fillColor=none;align=left;verticalAlign=top;spacingLeft=4;spacingRight=4;overflow=hidden;rotatable=0;points=[[0,0.5],[1,0.5]];portConstraint=eastwest;whiteSpace=wrap;html=1;" vertex="1" parent="fTGdVpEd8s1yHZfPlZ-Q-58">
          <mxGeometry y="34" width="160" height="26" as="geometry" />
        </mxCell>
        <mxCell id="fTGdVpEd8s1yHZfPlZ-Q-62" value="GroupedMovement" style="swimlane;fontStyle=1;align=center;verticalAlign=top;childLayout=stackLayout;horizontal=1;startSize=26;horizontalStack=0;resizeParent=1;resizeParentMax=0;resizeLast=0;collapsible=1;marginBottom=0;whiteSpace=wrap;html=1;" vertex="1" parent="1">
          <mxGeometry x="220" y="616" width="160" height="60" as="geometry" />
        </mxCell>
        <mxCell id="fTGdVpEd8s1yHZfPlZ-Q-64" value="" style="line;strokeWidth=1;fillColor=none;align=left;verticalAlign=middle;spacingTop=-1;spacingLeft=3;spacingRight=3;rotatable=0;labelPosition=right;points=[];portConstraint=eastwest;strokeColor=inherit;" vertex="1" parent="fTGdVpEd8s1yHZfPlZ-Q-62">
          <mxGeometry y="26" width="160" height="8" as="geometry" />
        </mxCell>
        <mxCell id="fTGdVpEd8s1yHZfPlZ-Q-65" value="+Update() : override void" style="text;strokeColor=none;fillColor=none;align=left;verticalAlign=top;spacingLeft=4;spacingRight=4;overflow=hidden;rotatable=0;points=[[0,0.5],[1,0.5]];portConstraint=eastwest;whiteSpace=wrap;html=1;" vertex="1" parent="fTGdVpEd8s1yHZfPlZ-Q-62">
          <mxGeometry y="34" width="160" height="26" as="geometry" />
        </mxCell>
        <mxCell id="fTGdVpEd8s1yHZfPlZ-Q-66" value="" style="endArrow=classic;html=1;rounded=0;exitX=0;exitY=0.364;exitDx=0;exitDy=0;exitPerimeter=0;entryX=0.994;entryY=0.072;entryDx=0;entryDy=0;entryPerimeter=0;" edge="1" parent="1" source="fTGdVpEd8s1yHZfPlZ-Q-58" target="fTGdVpEd8s1yHZfPlZ-Q-54">
          <mxGeometry width="50" height="50" relative="1" as="geometry">
            <mxPoint x="430" y="620" as="sourcePoint" />
            <mxPoint x="480" y="570" as="targetPoint" />
          </mxGeometry>
        </mxCell>
        <mxCell id="fTGdVpEd8s1yHZfPlZ-Q-67" value="" style="endArrow=classic;html=1;rounded=0;exitX=0;exitY=0.25;exitDx=0;exitDy=0;entryX=1;entryY=0.085;entryDx=0;entryDy=0;entryPerimeter=0;" edge="1" parent="1" source="fTGdVpEd8s1yHZfPlZ-Q-62" target="fTGdVpEd8s1yHZfPlZ-Q-54">
          <mxGeometry width="50" height="50" relative="1" as="geometry">
            <mxPoint x="430" y="620" as="sourcePoint" />
            <mxPoint x="480" y="570" as="targetPoint" />
          </mxGeometry>
        </mxCell>
        <mxCell id="fTGdVpEd8s1yHZfPlZ-Q-68" value="Inherits" style="text;strokeColor=none;fillColor=none;align=left;verticalAlign=top;spacingLeft=4;spacingRight=4;overflow=hidden;rotatable=0;points=[[0,0.5],[1,0.5]];portConstraint=eastwest;whiteSpace=wrap;html=1;" vertex="1" parent="1">
          <mxGeometry x="165" y="616" width="50" height="26" as="geometry" />
        </mxCell>
      </root>
    </mxGraphModel>
  </diagram>
</mxfile>
